# xmcd CD database file
#
# Track frame offsets:
#	150
#	22945
#	43012
#	59127
#	76327
#	94447
#	113947
#	126317
#	143387
#	161742
#
# Disc length: 2419 seconds
#
# Revision: 7
# Processed by: cddbd v1.5.2PL0 Copyright (c) Steve Scherf et al.
# Submitted via: CDex 1.80
#
DISCID=8709710a
DTITLE=Various Artist - Country Dance Super Hits
DYEAR=1995
DGENRE=Country
TTITLE0=Third Rock from the Sun - Joe Diffie
TTITLE1=I Feel Lucky - Mary Chapin Carpenter
TTITLE2=Blame It on Your Heart - Patty Loveless
TTITLE3=I Want You Bad ( And That Ain't Good ) - Collin Raye
TTITLE4=Old Enough to Know Better - Wade Hayes
TTITLE5=Just Enough Rope - Rick Trevino
TTITLE6=Jukebox Junkie - Ken Mellons
TTITLE7=Honky Tonk Attitude - Joe Diffie
TTITLE8=Wild Man - Ricky Van Shelton
TTITLE9=Down at the Twist and Shout - Mary Chapin Carpenter
EXTD=YEAR: 1995
EXTT0=
EXTT1=
EXTT2=
EXTT3=
EXTT4=
EXTT5=
EXTT6=
EXTT7=
EXTT8=
EXTT9=
PLAYORDER=
